<svg id="Capa_1" enable-background="new 0 0 512 512" height="512" viewBox="0 0 512 512" width="512" xmlns="http://www.w3.org/2000/svg"><g><path d="m348.43 335.363c-10.441-2.589-21.189-4.363-32.43-4.363h-60-60c-11.237 0-21.982 1.774-32.419 4.362l-20.338 48.314 21.991 110.977 33.47 17.347h57.296 57.303l34.647-24.236 24.133-120.672z" fill="#ececf1"/><path d="m347.95 487.764 24.133-120.672-23.654-31.729c-10.44-2.589-21.188-4.363-32.429-4.363h-60v181h57.303z" fill="#d8d8d8"/><path d="m256 151h-135v124.499h135 135v-124.499z" fill="#fdc"/><path d="m256 151h135v124.499h-135z" fill="#fb9"/><path d="m286 0h-30-30c-57.99 0-105 47.01-105 105v46h135 135v-46c0-57.99-47.01-105-105-105z" fill="#995c70"/><path d="m391 105c0-57.99-47.01-105-105-105h-30v151h135z" fill="#8c4d62"/><g><path d="m181 181h30v30h-30z" fill="#444"/></g><g><path d="m301 181h30v30h-30z" fill="#292929"/></g><g><path d="m451 466c0-63.318-43.762-116.054-102.57-130.637l-17.128 85.637 41.409 91h78.289z" fill="#8c4d62"/></g><g><path d="m331.302 421-17.999 91h59.408l22.508-91z" fill="#292929"/></g><g><g><path d="m198.704 512-35.123-176.638c-20.436 5.067-38.86 14.976-54.459 28.099l-48.122 113.553v34.986z" fill="#995c70"/></g></g><g><path d="m109.122 363.461c-29.291 24.644-48.122 61.221-48.122 102.539v11.014l61.567-32.855z" fill="#444"/></g><path d="m256 121h-165v60h165 165v-60z" fill="#8c4d62"/><path d="m256 121h165v60h-165z" fill="#733349"/><g><path d="m256 256c-54.3 0-91.8 7.5-135 19.499v10.501c0 74.399 60.601 135 135 135s135-60.601 135-135v-10.501c-66.63-19.433-113.568-17.959-135-19.499z" fill="#5a5a5a"/><path d="m391 286v-10.501c-66.63-19.433-113.568-17.958-135-19.499v165c74.399 0 135-60.601 135-135z" fill="#444"/></g><path d="m256 286c-24.814 0-45 20.186-45 45h30c0-8.276 6.724-15 15-15s15 6.724 15 15h30c0-24.814-20.186-45-45-45z" fill="#fdc"/><path d="m271 331h30c0-24.814-20.186-45-45-45v30c8.276 0 15 6.724 15 15z" fill="#fb9"/></g></svg>