<?xml version="1.0" encoding="iso-8859-1"?>
<!-- Generator: Adobe Illustrator 19.0.0, SVG Export Plug-In . SVG Version: 6.00 Build 0)  -->
<svg version="1.1" id="Capa_1" xmlns="http://www.w3.org/2000/svg" xmlns:xlink="http://www.w3.org/1999/xlink" x="0px" y="0px"
	 viewBox="0 0 480.004 480.004" style="enable-background:new 0 0 480.004 480.004;" xml:space="preserve">
<path style="fill:#F7C7C0;" d="M426.594,367.77c-1.624-4.88-5.496-8.68-10.408-10.208l-31.88-9.96l-0.304-3.6l-24-8l-1.208,3.624
	l-60.672-19.624l-0.752,0.432l-1.368-0.432l-16-40l40-48v-24h16c8.84,0,16-7.16,16-16v-32c0-8.84-7.16-16-16-16h-16v-24h16
	l-5.88-82.28c-1.192-16.744-15.128-29.72-31.912-29.72H184.002c-17.672,0-32,14.328-32,32v80h8v24h-16c-8.84,0-16,7.16-16,16v32
	c0,8.84,7.16,16,16,16h16v24l40,48l-17.8,40l0.648,0.36l-44.728,13.976l-74.304,23.224c-4.912,1.536-8.784,5.336-10.408,10.208
	L8.002,472.002h200h264L426.594,367.77z"/>
<path style="fill:#FFFFFF;" d="M208.002,72.002c0,6.608,1,12.416,2.864,17.504l-2.864-1.504l-3.688,2.456
	C206.682,84.778,208.002,78.546,208.002,72.002z"/>
<path style="fill:#606060;" d="M296.002,320.002l-56,32l-56-32l-120.184,37.56c-4.912,1.536-8.784,5.336-10.408,10.216
	L8.002,472.002h464L426.594,367.77c-1.624-4.88-5.496-8.68-10.408-10.216L296.002,320.002z"/>
<polygon style="fill:#E65039;" points="224.002,408.002 208.002,472.002 272.002,472.002 256.002,408.002 "/>
<polygon style="fill:#F7C7C0;" points="268.834,120.002 320.002,120.002 320.002,232.002 280.002,280.002 240.002,296.002 
	200.002,280.002 160.002,232.002 160.002,120.002 208.002,88.002 "/>
<rect x="160.002" y="112.002" width="8" height="16"/>
<g>
	<path style="fill:#F7C7C0;" d="M336.002,208.002h-16v-64h16c8.84,0,16,7.16,16,16v32
		C352.002,200.842,344.842,208.002,336.002,208.002z"/>
	<path style="fill:#F7C7C0;" d="M160.002,208.002h-16c-8.84,0-16-7.16-16-16v-32c0-8.84,7.16-16,16-16h16V208.002z"/>
</g>
<polygon style="fill:#F5B9B0;" points="200.002,280.002 182.202,320.002 240.002,352.002 296.002,320.002 280.002,280.002 
	240.002,296.002 "/>
<path style="fill:#E65039;" d="M330.122,37.722c-1.192-16.744-15.128-29.72-31.912-29.72h-90.208h-24c-17.672,0-32,14.328-32,32v80
	h8c26.512,0,48-21.488,48-48l0,0c0,35.344,28.656,48,64,48h64L330.122,37.722z"/>
<polyline style="fill:#FCB641;" points="360.002,336.002 328.002,432.002 360.002,472.002 392.002,440.002 384.002,344.002 "/>
<g>
	<polygon style="fill:#F2F2F2;" points="184.002,320.002 138.122,334.338 208.002,392.002 240.002,352.002 	"/>
	<polygon style="fill:#F2F2F2;" points="298.122,320.002 344.002,334.338 274.122,392.002 242.122,352.002 	"/>
</g>
<polygon style="fill:#E65039;" points="240.002,424.002 272.002,392.002 240.002,352.002 208.002,392.002 "/>
<path d="M479.338,468.81l-45.16-103.56c-2.44-7.304-8.272-13.032-15.616-15.32l-27.032-8.448c-0.784-2.352-2.584-4.256-5-5.064
	l-24-8c-2.784-0.928-5.6-0.144-7.648,1.608l-5.872-1.832c-0.776-0.632-1.632-1.176-2.624-1.488l-44.664-13.96l-12.512-31.28
	l36.944-44.336c1.192-1.448,1.848-3.256,1.848-5.128v-16h8c13.232,0,24-10.768,24-24v-32c0-13.232-10.768-24-24-24h-8v-8h8
	c2.216,0,4.344-0.92,5.848-2.544c1.512-1.624,2.288-3.808,2.128-6.024l-5.872-82.28c-1.488-20.832-19.008-37.152-39.904-37.152
	h-114.2c-22.056,0-40,17.944-40,40v80c0,4.416,3.576,8,8,8v8h-8c-13.232,0-24,10.768-24,24v32c0,13.232,10.768,24,24,24h8v16
	c0,1.872,0.656,3.68,1.848,5.12l36.808,44.176l-14.6,32.808l-40.32,12.6c0,0,0,0-0.008,0l-74.288,23.216
	c-7.344,2.288-13.176,8.016-15.36,14.656L0.666,468.81c-1.08,2.472-0.832,5.328,0.64,7.576c1.488,2.256,4,3.616,6.696,3.616h200h64
	h200c2.696,0,5.208-1.36,6.696-3.616C480.17,474.13,480.418,471.282,479.338,468.81z M383.722,436.97l-23.056,23.056l-23.696-29.624
	l26.936-80.8l12.872,4.024L383.722,436.97z M278.242,464.002l-13.384-53.544l10.704-10.704c1.328-0.248,2.6-0.704,3.656-1.576
	l65.952-54.424l3.456,1.08l-28.216,84.64c-0.856,2.576-0.36,5.408,1.336,7.528l21.6,27H278.242z M154.61,337.57l27.352-8.552
	l45.864,25.392l-21,26.248L154.61,337.57z M204.178,290.29l32.848,13.144c0.96,0.376,1.968,0.568,2.976,0.568
	s2.016-0.192,2.968-0.568l32.576-13.032l10.44,26.112l-45.984,26.272l-47.192-26.96L204.178,290.29z M275.298,380.666
	l-21.088-26.352l44.104-25.2l28.616,8.944L275.298,380.666z M218.722,391.41l21.28-26.6l21.28,26.6l-21.28,21.28L218.722,391.41z
	 M336.002,152.002c4.416,0,8,3.592,8,8v32c0,4.408-3.584,8-8,8h-8v-48H336.002z M160.002,40.002c0-13.232,10.768-24,24-24h114.2
	c12.528,0,23.048,9.792,23.944,22.288l5.264,73.712h-7.408h-48c-37.16,0-56-13.456-56-40c0-4.416-3.576-8-8-8s-8,3.584-8,8
	c0,22.056-17.944,40-40,40V40.002z M144.002,200.002c-4.416,0-8-3.592-8-8v-32c0-4.408,3.584-8,8-8h8v48H144.002z M168.002,208.002
	v-64v-16.608c16.8-2.416,31.232-12.296,39.768-26.184c10.92,17.312,33.048,26.792,64.232,26.792h40v16v64v21.104l-36.848,44.216
	l-35.152,14.064L204.85,273.33l-36.848-44.224V208.002z M61.01,370.298c0.808-2.432,2.752-4.336,5.192-5.104l70.168-21.928
	l66.264,54.688l12.504,12.504l-13.376,53.544H20.21L61.01,370.298z M218.25,464.002l10.08-40.352l6.008,6.008
	c1.568,1.56,3.616,2.344,5.664,2.344s4.096-0.784,5.656-2.344l6.008-6.008l10.088,40.352H218.25z M379.314,464.002l18.344-18.344
	c1.664-1.664,2.504-3.976,2.312-6.32l-6.712-80.56l20.544,6.416c2.448,0.76,4.392,2.664,5.456,5.768l40.536,93.04H379.314z"/>
<g>
</g>
<g>
</g>
<g>
</g>
<g>
</g>
<g>
</g>
<g>
</g>
<g>
</g>
<g>
</g>
<g>
</g>
<g>
</g>
<g>
</g>
<g>
</g>
<g>
</g>
<g>
</g>
<g>
</g>
</svg>
