<svg id="Layer_1" height="512" viewBox="0 0 128 128" width="512" xmlns="http://www.w3.org/2000/svg" data-name="Layer 1"><path d="m113.56 115.5h-99.12a32.256 32.256 0 0 1 32.26-32.26h2.14a4.042 4.042 0 0 0 4.05-4.06c-.01-3.47-.02-7.9-.02-7.9h22.26s-.01 4.43-.02 7.9a4.042 4.042 0 0 0 4.05 4.06h2.14a32.264 32.264 0 0 1 32.26 32.26z" fill="#a55000"/><path d="m104.11 92.69a32.132 32.132 0 0 0 -22.81-9.45h-.241c0 .011-2.732 11.708-17.059 15.4v16.86h49.56a32.132 32.132 0 0 0 -9.45-22.81z" fill="#943100"/><path d="m48.845 83.24h-1.9a19.717 19.717 0 0 0 34.118 0h-1.9a4.046 4.046 0 0 1 -4.05-4.058c.011-3.47.019-7.9.019-7.9h-22.257s.008 4.434.019 7.9a4.046 4.046 0 0 1 -4.049 4.058z" fill="#f8bda2"/><path d="m36.254 43.521h55.493v16.375h-55.493z" fill="#f8bda2"/><path d="m64 79.84a27.746 27.746 0 0 1 -27.746-27.747v-11.847a27.742 27.742 0 0 1 27.746-27.746 27.746 27.746 0 0 1 27.746 27.746v11.847a27.746 27.746 0 0 1 -27.746 27.747z" fill="#fbccbb"/><path d="m74.3 38.625s7.087 1.715 7.087 7.545-7.087 7.163-7.087 7.163.34 18.707-5.166 26.024a27.749 27.749 0 0 0 22.612-27.264v-11.847a27.746 27.746 0 0 0 -27.746-27.746s10.3 5 10.3 26.125z" fill="#f8bda2"/><path d="m64 82.25c-13.128 0-23.77-11.637-23.77-25.993v-11.1a27.5 27.5 0 0 1 4.751-15.594 23.128 23.128 0 0 1 19.019-10.396c13.128 0 23.77 11.637 23.77 25.993v11.1c0 14.353-10.642 25.99-23.77 25.99z" fill="#e2f2ef"/><path d="m64 82.25c13.128 0 23.77-11.637 23.77-25.993v-11.1c0-11.842-7.245-21.828-17.151-24.964 2 4 3.681 10.36 3.681 18.888 0 0 7.087.292 7.087 7.086 0 6.268-7.087 7.163-7.087 7.163s.533 28.92-10.3 28.92z" fill="#c8e2dd"/><path d="m38 115.5v-15.11a1.75 1.75 0 1 0 -3.5 0v15.11z" fill="#943100"/><path d="m93.5 100.39v15.11h-3.5v-15.11a1.75 1.75 0 0 1 3.5 0z" fill="#a55000"/><path d="m28.066 51.708a8.188 8.188 0 0 0 8.188 8.192v-16.379a8.187 8.187 0 0 0 -8.188 8.187z" fill="#fbccbb"/><path d="m99.934 51.708a8.188 8.188 0 0 0 -8.187-8.187v16.379a8.187 8.187 0 0 0 8.187-8.192z" fill="#f8bda2"/><rect fill="#0d5276" height="8.25" rx="1.478" transform="matrix(.97 .243 -.243 .97 10.156 -8.241)" width="9.154" x="33.837" y="32.839"/><rect fill="#112d34" height="8.25" rx="1.478" transform="matrix(-.97 .243 -.243 -.97 185.476 51.002)" width="9.154" x="85.009" y="32.839"/><rect fill="#0d5276" height="8.25" rx="1.478" width="7.538" x="60.231" y="12.5"/><circle cx="53.7" cy="45.979" fill="#f8bda2" r="5.2"/><circle cx="74.3" cy="45.979" fill="#f8bda2" r="5.2"/><path d="m45.81 72.982 5.978-9.274-10.347.735a26.7 26.7 0 0 0 4.369 8.539z" fill="#cc1c17"/><path d="m82.19 72.982a26.7 26.7 0 0 0 4.369-8.539l-10.347-.735z" fill="#941111"/><g fill="#0d5276"><circle cx="60.021" cy="60.614" r="3.031"/><circle cx="67.979" cy="60.614" r="3.031"/><circle cx="60.021" cy="29.375" r="3.031"/><circle cx="67.979" cy="29.375" r="3.031"/><circle cx="60.021" cy="69.333" r="3.031"/><circle cx="67.979" cy="69.333" r="3.031"/></g><path d="m81.3 81.489h-2.145a2.29 2.29 0 0 1 -2.115-1.4 26.358 26.358 0 0 0 6.26-5.706c.024-.019.053-.025.076-.045a29.514 29.514 0 0 0 8.532-12.7 9.934 9.934 0 0 0 1.851-19.663l1.7-.427a1.749 1.749 0 0 0 1.271-2.123l-2.009-8a1.748 1.748 0 0 0 -2.123-1.271l-.8.2a29.709 29.709 0 0 0 -5.77-9.729 1.751 1.751 0 1 0 -2.613 2.33 26.148 26.148 0 0 1 4.964 8.258l-2.045.513a25.861 25.861 0 0 0 -16.815-13.656v-3.223a25.715 25.715 0 0 1 4.135 1.253 1.75 1.75 0 0 0 1.3-3.25 29.322 29.322 0 0 0 -6.063-1.684 1.734 1.734 0 0 0 -1.123-.418h-7.537a1.734 1.734 0 0 0 -1.116.412 29.686 29.686 0 0 0 -18.715 11.389 29.287 29.287 0 0 0 -4.169 7.81l-.826-.207a1.749 1.749 0 0 0 -2.123 1.271l-2.009 8a1.749 1.749 0 0 0 1.271 2.123l1.7.427a9.934 9.934 0 0 0 1.856 19.664 29.5 29.5 0 0 0 8.533 12.7c.022.02.051.026.074.044a26.358 26.358 0 0 0 6.256 5.71 2.29 2.29 0 0 1 -2.115 1.4h-2.148a33.927 33.927 0 0 0 -11.472 1.984 1.75 1.75 0 0 0 .59 3.4 1.729 1.729 0 0 0 .59-.1 30.39 30.39 0 0 1 9.586-1.749 21.57 21.57 0 0 0 18.006 9.793 21.245 21.245 0 0 0 13.152-4.507 1.75 1.75 0 1 0 -2.146-2.764 17.779 17.779 0 0 1 -11.006 3.771 18.048 18.048 0 0 1 -13.812-6.5 5.575 5.575 0 0 0 3.819-3.034 23.623 23.623 0 0 0 19.984 0 5.671 5.671 0 0 0 5.163 3.207h2.146a30.545 30.545 0 0 1 30.51 30.508 1.75 1.75 0 0 0 3.5 0 34.049 34.049 0 0 0 -34.01-34.011zm8.7-29.4a25.972 25.972 0 0 1 -.5 5.011c.008-.282.02-.562.02-.846v-11.1c0-.7-.031-1.4-.079-2.1l.559-.136zm-7.762 17.737-2.658-4.126 4.566.324a25.052 25.052 0 0 1 -1.908 3.802zm15.946-18.118a6.443 6.443 0 0 1 -5.3 6.331 29.474 29.474 0 0 0 .613-5.946v-6.574a6.444 6.444 0 0 1 4.687 6.189zm-5.278-13.129-5.483 1.377-1.157-4.607 5.483-1.377zm-30.925-24.329h4.037v4.75h-4.037zm-25.73 19.722 5.483 1.377-1.157 4.607-5.483-1.377zm7.6 32.054 4.569-.326-2.658 4.124a25.052 25.052 0 0 1 -1.908-3.798zm-14.035-14.318a6.444 6.444 0 0 1 4.684-6.189v6.574a29.481 29.481 0 0 0 .612 5.946 6.443 6.443 0 0 1 -5.296-6.331zm8.184-8.79.556.139c-.048.7-.079 1.4-.079 2.1v11.1c0 .284.012.564.02.846a25.975 25.975 0 0 1 -.5-5.011zm16.04 34.949a1.739 1.739 0 0 0 -.593-.339 22.572 22.572 0 0 1 -5.474-4.673l5.285-8.2a1.749 1.749 0 0 0 .035-1.84 1.708 1.708 0 0 0 -1.63-.854l-8.914.634a26.475 26.475 0 0 1 -.769-6.339v-11.1c0-.453.018-.907.04-1.359a1.734 1.734 0 0 0 1.525-1.3l2.009-8a1.7 1.7 0 0 0 -.494-1.685 24.7 24.7 0 0 1 1.363-2.262 22.805 22.805 0 0 1 8.026-7.245 1.751 1.751 0 1 0 -1.643-3.092 26.321 26.321 0 0 0 -9.269 8.355 28.172 28.172 0 0 0 -1.837 3.162l-2.061-.517a25.8 25.8 0 0 1 3.561-6.562 26.178 26.178 0 0 1 15.282-9.8v5.9a1.75 1.75 0 0 0 1.75 1.75h7.537a1.742 1.742 0 0 0 1.506-.873 22.369 22.369 0 0 1 13.67 11.186 1.7 1.7 0 0 0 -.5 1.69l2.009 8a1.734 1.734 0 0 0 1.525 1.3c.023.452.04.905.04 1.359v11.1a26.475 26.475 0 0 1 -.769 6.339l-8.914-.634a1.708 1.708 0 0 0 -1.63.854 1.749 1.749 0 0 0 .035 1.84l5.285 8.2a22.573 22.573 0 0 1 -5.474 4.673 1.741 1.741 0 0 0 -.592.339 20.157 20.157 0 0 1 -19.92 0z"/><path d="m23.8 90.353a34.1 34.1 0 0 0 -11.11 25.147 1.75 1.75 0 0 0 3.5 0 30.588 30.588 0 0 1 9.969-22.56 1.75 1.75 0 0 0 -2.359-2.587z"/><path d="m29.966 85.886q-.368.208-.73.425a1.75 1.75 0 1 0 1.789 3.008c.221-.131.442-.261.666-.388a1.75 1.75 0 1 0 -1.725-3.045z"/><path d="m78.526 18.684c.2.137.4.277.6.42a1.75 1.75 0 0 0 2.037-2.846c-.227-.162-.455-.322-.687-.479a1.75 1.75 0 1 0 -1.953 2.9z"/><path d="m36.254 98.636a1.75 1.75 0 0 0 -1.75 1.75v15.114a1.75 1.75 0 0 0 3.5 0v-15.114a1.75 1.75 0 0 0 -1.75-1.75z"/><path d="m91.746 98.636a1.75 1.75 0 0 0 -1.75 1.75v15.114a1.75 1.75 0 0 0 3.5 0v-15.114a1.75 1.75 0 0 0 -1.75-1.75z"/><path d="m60.65 45.979a6.95 6.95 0 1 0 -13.9 0 1.75 1.75 0 0 0 3.5 0 3.45 3.45 0 1 1 3.45 3.45 1.75 1.75 0 0 0 0 3.5 6.958 6.958 0 0 0 6.95-6.95z"/><path d="m67.35 45.979a6.95 6.95 0 1 0 6.95-6.951 6.958 6.958 0 0 0 -6.95 6.951zm6.95-3.451a3.451 3.451 0 1 1 -3.45 3.451 3.454 3.454 0 0 1 3.45-3.451z"/><path d="m60.021 57.583a3.031 3.031 0 1 0 3.031 3.031 3.034 3.034 0 0 0 -3.031-3.031z"/><path d="m67.979 63.646a3.031 3.031 0 1 0 -3.031-3.031 3.034 3.034 0 0 0 3.031 3.031z"/><path d="m60.021 26.344a3.031 3.031 0 1 0 3.031 3.031 3.034 3.034 0 0 0 -3.031-3.031z"/><path d="m67.979 32.406a3.031 3.031 0 1 0 -3.031-3.031 3.034 3.034 0 0 0 3.031 3.031z"/><path d="m60.021 66.3a3.031 3.031 0 1 0 3.031 3.031 3.034 3.034 0 0 0 -3.031-3.031z"/><path d="m67.979 66.3a3.031 3.031 0 1 0 3.031 3.031 3.034 3.034 0 0 0 -3.031-3.031z"/></svg>